<?xml version="1.0" standalone="no"?>
<!DOCTYPE svg PUBLIC "-//W3C//DTD SVG 20010904//EN"
 "http://www.w3.org/TR/2001/REC-SVG-20010904/DTD/svg10.dtd">
<svg version="1.0" xmlns="http://www.w3.org/2000/svg"
 width="409.000000pt" height="159.000000pt" viewBox="0 0 409.000000 159.000000"
 preserveAspectRatio="xMidYMid meet">

<g transform="translate(0.000000,159.000000) scale(0.100000,-0.100000)"
fill="#000000" stroke="none">
<path d="M1197 1543 l-78 -15 3 -667 3 -666 29 -53 c43 -76 117 -116 235 -124
l45 -3 12 65 c20 101 25 90 -54 110 -31 8 -48 20 -62 43 -19 31 -20 55 -20
680 0 610 -1 647 -17 646 -10 -1 -53 -8 -96 -16z"/>
<path d="M255 1069 c-113 -20 -110 -19 -108 -85 1 -32 5 -69 8 -81 5 -21 6
-21 62 -5 37 10 101 16 175 16 114 1 117 0 160 -29 58 -41 87 -101 88 -184 l0
-63 -28 5 c-72 15 -184 18 -253 8 -119 -16 -186 -45 -245 -106 -67 -68 -88
-128 -82 -234 10 -172 108 -263 310 -292 74 -11 112 -10 260 5 95 9 185 20
201 23 l27 5 0 352 c0 371 -6 430 -50 515 -26 51 -96 111 -156 135 -57 22
-283 31 -369 15z m354 -575 l31 -6 0 -153 0 -152 -52 -7 c-126 -15 -245 -1
-305 35 -41 25 -68 93 -60 151 7 50 55 102 113 123 40 15 216 20 273 9z"/>
<path d="M1900 1073 c-43 -3 -185 -28 -222 -39 -17 -5 -18 -37 -18 -500 l0
-494 95 0 95 0 0 424 c0 300 3 427 11 432 22 13 224 17 262 5 49 -17 91 -62
112 -124 16 -45 19 -98 23 -395 l4 -342 94 0 94 0 0 293 c0 270 -8 421 -25
490 -7 25 -4 29 51 54 45 21 78 28 140 31 146 7 209 -44 233 -189 6 -38 11
-195 11 -372 l0 -307 95 0 95 0 0 323 c0 416 -14 511 -92 609 -96 122 -358
142 -552 43 l-70 -35 -25 24 c-71 66 -193 86 -411 69z"/>
<path d="M3515 1074 c-16 -3 -54 -12 -82 -20 -45 -12 -53 -18 -53 -38 0 -24
18 -127 23 -132 2 -2 25 3 52 11 69 21 230 30 282 16 87 -24 135 -91 148 -210
l7 -64 -38 7 c-218 37 -401 1 -500 -98 -66 -67 -88 -129 -82 -230 12 -176 108
-268 310 -297 74 -11 113 -10 266 5 99 9 189 20 201 23 21 5 21 6 21 359 0
454 -9 498 -116 593 -68 60 -117 73 -274 76 -74 2 -148 1 -165 -1z m363 -587
c15 -10 17 -292 2 -302 -5 -3 -56 -9 -112 -12 -172 -9 -270 28 -299 115 -30
90 25 177 126 203 38 10 266 7 283 -4z"/>
</g>
</svg>
